#!OML:ASF H:\Terrain\Patient Classification 1\Animal1\Tuesday\Animal1.ASF
:FULLY-SPECIFIED
:DEGREES
3760
root 8.31922 16.1376 -19.3975 -353.08 0.839641 -0.730823
lowerback -8.92383 -0.669505 0.880952
upperback -10.5713 -0.833364 2.33679
thorax -6.06062 -0.379144 1.92639
lowerneck -10.2299 0.908716 -6.66707
upperneck 12.2362 1.1981 7.95486
head 5.2589 0.837217 3.68516
rclavicle 1.31198e-014 -6.36111e-015
rhumerus -6.6851 26.8504 -78.3817
rradius 136.45
rwrist -10.7935
rhand 39.4669 -3.28367
rfingers 7.12502
rthumb 61.9518 -374.837
lclavicle 1.31198e-014 -6.36111e-015
lhumerus -16.5196 -10.4753 80.3287
lradius 137.971
lwrist 4.00651
lhand -112.426 -117.278
lfingers 7.12502
lthumb 74.4325 -357.335
rfemur -5.50587 34.5271 18.7601
rtibia 16.899
rfoot -26.7391 -43.0737
rtoes 27.0426
lfemur -7.43637 -52.2907 -7.36408
ltibia 12.2998
lfoot -41.9274 42.4656
ltoes 36.0702
3761
root 8.32543 16.1413 -19.401 -353.042 0.769424 -0.450587
lowerback -8.88211 -0.745579 0.620662
upperback -10.6216 -0.925049 2.2713
thorax -6.13282 -0.409894 2.00177
lowerneck -10.4376 0.911882 -6.73809
upperneck 12.4111 1.20045 8.0781
head 5.34655 0.8476 3.74275
rclavicle -1.31198e-014 2.38542e-015
rhumerus -6.36428 26.8326 -78.2905
rradius 136.127
rwrist -10.8065
rhand 39.507 -1.71527
rfingers 7.12502
rthumb 61.9853 -373.228
lclavicle -1.31198e-014 2.38542e-015
lhumerus -16.2112 -10.2394 80.704
lradius 137.774
lwrist 4.18914
lhand -112.034 -118.044
lfingers 7.12502
lthumb 74.3264 -359.448
rfemur -5.58016 34.6742 18.3931
rtibia 16.9425
rfoot -26.6012 -43.2709
rtoes 26.6283
lfemur -7.41302 -51.7786 -7.67833
ltibia 12.1402
lfoot -41.4132 42.2015
ltoes 35.8698
3762
root 8.33201 16.143 -19.4081 -352.971 0.717648 -0.528635
lowerback -8.82583 -0.783981 0.743979
upperback -10.6965 -0.978358 2.29361
thorax -6.24664 -0.443844 1.95706
lowerneck -10.51 0.945685 -6.77976
upperneck 12.4077 1.24488 8.16825
head 5.35319 0.875049 3.78254
rclavicle -1.70955e-014 7.15625e-015
rhumerus -6.02595 26.8118 -78.1666
rradius 136.189
rwrist -11.3759
rhand 40.6038 -1.79063
rfingers 7.12502
rthumb 62.8938 -372.125
lclavicle -1.70955e-014 7.15625e-015
lhumerus -16.1746 -9.90115 81.042
lradius 137.772
lwrist 4.28278
lhand -112.167 -119.11
lfingers 7.12502
lthumb 74.3632 -360.06
rfemur -5.76405 34.8748 18.3809
rtibia 17.0697
rfoot -27.3257 -43.1189
rtoes 27.3158
lfemur -7.41525 -51.228 -7.51217
ltibia 11.8387
lfoot -40.5891 42.0893
ltoes 35.5403
3763
root 8.33713 16.1461 -19.414 -352.888 0.644772 -0.582307
lowerback -8.89508 -0.780443 0.872546
upperback -10.722 -0.980887 2.27976
thorax -6.23836 -0.454939 1.86993
lowerneck -10.4598 0.944786 -6.82624
upperneck 12.2306 1.24702 8.2368
head 5.2887 0.877543 3.80801
rclavicle 1.15295e-014 -3.97569e-015
rhumerus -5.70693 26.7986 -77.9179
rradius 136.327
rwrist -12.1244
rhand 40.3663 -1.01225
rfingers 7.12502
rthumb 62.6981 -371.609
lclavicle 1.15295e-014 -3.97569e-015
lhumerus -16.3483 -9.5464 81.2312
lradius 138.006
lwrist 4.49562
lhand -112.74 -119.802
lfingers 7.12502
lthumb 74.5111 -358.765
rfemur -5.92421 35.067 18.3426
rtibia 17.1618
rfoot -28.5426 -42.7114
rtoes 28.3167
lfemur -7.43968 -51.0313 -7.35837
ltibia 11.5923
lfoot -40.4474 41.9533
ltoes 36.1482
3764
root 8.33967 16.1489 -19.4172 -352.848 0.484694 -0.485963
lowerback -8.92165 -0.766819 0.82557
upperback -10.7226 -0.96457 2.22235
thorax -6.22447 -0.446392 1.83604
lowerneck -10.5202 0.946861 -6.86329
upperneck 12.1018 1.25479 8.31271
head 5.25762 0.885818 3.8372
rclavicle 8.54774e-015 -7.95139e-015
rhumerus -5.38988 26.7257 -77.7016
rradius 136.429
rwrist -13.2528
rhand 40.3293 -0.512324
rfingers 7.12502
rthumb 62.6676 -371.149
lclavicle 8.54774e-015 -7.95139e-015
lhumerus -16.2935 -9.0194 81.3762
lradius 138.322
lwrist 5.14594
lhand -113.189 -119.969
lfingers 7.12502
lthumb 74.6136 -357.346
rfemur -6.08725 35.3179 18.167
rtibia 17.3227
rfoot -28.5896 -42.8788
rtoes 27.8702
lfemur -7.30217 -50.8907 -7.46353
ltibia 11.2702
lfoot -40.6313 41.6211
ltoes 37.1125
3765
root 8.34071 16.1513 -19.4224 -352.838 0.264767 -0.185083
lowerback -8.8528 -0.765886 0.552315
upperback -10.7407 -0.956112 2.11234
thorax -6.2796 -0.427993 1.87517
lowerneck -10.5764 0.951369 -6.88692
upperneck 11.9812 1.26049 8.40863
head 5.22843 0.895007 3.87051
rclavicle -1.39149e-014 7.95139e-016
rhumerus -5.21307 26.6267 -77.6677
rradius 136.604
rwrist -14.6377
rhand 40.7366 -1.56091
rfingers 7.12502
rthumb 63.0029 -371.747
lclavicle -1.39149e-014 7.95139e-016
lhumerus -16.0074 -8.38406 81.5556
lradius 138.595
lwrist 5.86879
lhand -113.328 -120.107
lfingers 7.12502
lthumb 74.6428 -356.99
rfemur -6.32136 35.5716 17.7608
rtibia 17.5861
rfoot -28.1936 -43.314
rtoes 27.2395
lfemur -7.03284 -50.7345 -7.84129
ltibia 10.7955
lfoot -40.553 41.5792
ltoes 37.2869
3766
root 8.34285 16.154 -19.4278 -352.908 0.0936714 0.149496
lowerback -8.7071 -0.779659 0.251322
upperback -10.7441 -0.96619 1.99296
thorax -6.3608 -0.416982 1.92034
lowerneck -10.5355 0.963481 -6.92631
upperneck 11.8158 1.27374 8.52143
head 5.16802 0.906382 3.91001
rclavicle -1.13307e-014 6.36111e-015
rhumerus -5.253 26.7027 -77.7364
rradius 136.855
rwrist -15.3263
rhand 39.9504 -2.32786
rfingers 7.12502
rthumb 62.354 -373.374
lclavicle -1.13307e-014 6.36111e-015
lhumerus -15.7476 -7.77838 81.7352
lradius 138.844
lwrist 6.41916
lhand -113.363 -120.538
lfingers 7.12502
lthumb 74.6499 -357.297
rfemur -6.39385 35.7114 17.3848
rtibia 17.7948
rfoot -28.7227 -43.2068
rtoes 28.0121
lfemur -6.67492 -50.8452 -8.34682
ltibia 10.4106
lfoot -40.7654 41.6546
ltoes 37.4539
3767
root 8.34604 16.156 -19.4319 -352.893 0.0394767 0.198838
lowerback -8.64708 -0.813956 0.259187
upperback -10.768 -1.01379 1.94349
thorax -6.41981 -0.443424 1.86405
lowerneck -10.6004 1.02278 -7.00123
upperneck 11.7552 1.34488 8.73357
head 5.15188 0.953607 3.99474
rclavicle -2.14687e-014 1.19271e-014
rhumerus -5.25885 26.916 -77.8464
rradius 137.148
rwrist -15.3887
rhand 38.4295 -1.87749
rfingers 7.12502
rthumb 61.081 -374.471
lclavicle -2.14687e-014 1.19271e-014
lhumerus -15.5107 -7.24715 81.7962
lradius 139.147
lwrist 6.88947
lhand -113.779 -120.583
lfingers 7.12502
lthumb 74.7293 -355.852
rfemur -6.5015 35.8992 17.2896
rtibia 17.9528
rfoot -29.6822 -42.8675
rtoes 29.1887
lfemur -6.53325 -50.7824 -8.39168
ltibia 10.1093
lfoot -40.6694 41.5808
ltoes 37.5602
3768
root 8.35144 16.1552 -19.4349 -352.771 0.064776 -0.036609
lowerback -8.70918 -0.850189 0.618268
upperback -10.8074 -1.07644 1.94684
thorax -6.43304 -0.500321 1.6647
lowerneck -10.8148 1.08639 -7.03474
upperneck 11.8482 1.41653 8.94097
head 5.20869 1.00606 4.07678
rclavicle -4.17448e-015 -1.59028e-015
rhumerus -5.22691 27.0463 -78.0569
rradius 137.454
rwrist -15.5585
rhand 37.5284 -1.59511
rfingers 7.12502
rthumb 60.3166 -375.039
lclavicle -4.17448e-015 -1.59028e-015
lhumerus -15.2504 -6.8044 81.6807
lradius 139.487
lwrist 7.208
lhand -114.204 -120.298
lfingers 7.12502
lthumb 74.7995 -354.028
rfemur -6.68454 36.4249 17.4582
rtibia 18.0673
rfoot -30.6073 -42.9185
rtoes 29.668
lfemur -6.65218 -50.8097 -7.9353
ltibia 9.87564
lfoot -40.6102 41.5992
ltoes 37.4785
3769
root 8.35604 16.1535 -19.4362 -352.669 0.0562924 -0.082237
lowerback -8.78796 -0.864382 0.77849
upperback -10.8284 -1.10495 1.89975
thorax -6.41546 -0.528328 1.52388
lowerneck -10.9899 1.1129 -7.05747
upperneck 11.9067 1.45022 9.03733
head 5.25253 1.03196 4.11783
rclavicle 1.19271e-015 3.18055e-015
rhumerus -5.27571 27.0264 -78.3025
rradius 137.716
rwrist -15.7325
rhand 37.633 -1.54995
rfingers 7.12502
rthumb 60.4058 -374.897
lclavicle 1.19271e-015 3.18055e-015
lhumerus -15.0216 -6.51911 81.5145
lradius 139.76
lwrist 7.27353
lhand -114.158 -120.053
lfingers 7.12502
lthumb 74.7925 -353.948
rfemur -6.7542 37.0713 17.4483
rtibia 18.0711
rfoot -31.7293 -42.9733
rtoes 31.0281
lfemur -6.82148 -50.835 -7.75166
ltibia 9.86099
lfoot -40.8432 41.4286
ltoes 37.6932
3770
root 8.35726 16.1521 -19.4388 -352.586 -0.0292986 0.121108
lowerback -8.85639 -0.866224 0.606263
upperback -10.8337 -1.10552 1.81695
thorax -6.38081 -0.520312 1.53198
lowerneck -11.1056 1.14042 -6.95256
upperneck 11.9102 1.49578 8.89359
head 5.27192 1.0512 4.05951
rclavicle 2.5842e-015 1.59028e-014
rhumerus -5.28873 26.9571 -78.501
rradius 137.87
rwrist -15.7246
rhand 37.8176 -1.24581
rfingers 7.12502
rthumb 60.5627 -374.421
lclavicle 2.5842e-015 1.59028e-014
lhumerus -14.6973 -6.40941 81.4045
lradius 139.943
lwrist 7.1395
lhand -113.867 -119.263
lfingers 7.12502
lthumb 74.7449 -354.211
rfemur -6.80797 37.517 17.1651
rtibia 18.0164
rfoot -32.2108 -43.1689
rtoes 31.819
lfemur -7.00028 -50.8233 -7.89348
ltibia 9.97554
lfoot -41.1567 41.2194
ltoes 38.0661
3771
root 8.35805 16.1511 -19.4425 -352.519 -0.151204 0.161557
lowerback -8.90429 -0.841127 0.590209
upperback -10.8257 -1.07438 1.7818
thorax -6.34619 -0.505509 1.50404
lowerneck -11.217 1.18417 -6.79394
upperneck 11.9611 1.55829 8.70004
head 5.30491 1.07761 3.97855
rclavicle -6.95746e-015 1.03368e-014
rhumerus -5.19792 26.8563 -78.6195
rradius 137.953
rwrist -16.0999
rhand 38.0185 -1.32169
rfingers 7.12502
rthumb 60.7332 -374.308
lclavicle -6.95746e-015 1.03368e-014
lhumerus -14.233 -6.43353 81.3163
lradius 140.02
lwrist 6.8226
lhand -113.715 -118.418
lfingers 7.12502
lthumb 74.7179 -353.915
rfemur -6.91675 37.7163 17.0326
rtibia 17.9858
rfoot -31.9025 -43.4909
rtoes 30.9249
lfemur -7.11172 -50.7592 -7.90913
ltibia 10.051
lfoot -41.178 41.2501
ltoes 38.0939
3772
root 8.35972 16.1528 -19.4454 -352.411 -0.277553 0.00246996
lowerback -8.9684 -0.801076 0.772468
upperback -10.8555 -1.02833 1.81679
thorax -6.34721 -0.494101 1.43999
lowerneck -11.3009 1.21237 -6.75234
upperneck 12.0711 1.59699 8.63949
head 5.35109 1.09603 3.95879
rclavicle 1.0138e-014 -9.54166e-015
rhumerus -5.042 26.7338 -78.6402
rradius 138.017
rwrist -16.9476
rhand 37.4504 -1.07466
rfingers 7.12502
rthumb 60.2502 -374.59
lclavicle 1.0138e-014 -9.54166e-015
lhumerus -13.9701 -6.56857 81.1983
lradius 139.977
lwrist 6.40347
lhand -113.72 -118.513
lfingers 7.12502
lthumb 74.7188 -353.992
rfemur -7.09603 37.8343 17.0551
rtibia 17.9393
rfoot -31.5996 -43.564
rtoes 30.8056
lfemur -7.29569 -50.6233 -7.65659
ltibia 10.149
lfoot -41.1627 41.2701
ltoes 38.1566
3773
root 8.36152 16.1537 -19.4486 -352.33 -0.420764 -0.157811
lowerback -8.96687 -0.760809 0.919433
upperback -10.911 -0.977721 1.88319
thorax -6.41209 -0.476397 1.43051
lowerneck -11.3189 1.22758 -6.71794
upperneck 12.151 1.62091 8.55249
head 5.37818 1.10361 3.92899
rclavicle -1.90833e-014 -1.74931e-014
rhumerus -4.94336 26.6959 -78.6489
rradius 137.995
rwrist -17.4586
rhand 36.4177 -0.63054
rfingers 7.12502
rthumb 59.3652 -375.06
lclavicle -1.90833e-014 -1.74931e-014
lhumerus -14.0779 -6.86927 81.0193
lradius 139.864
lwrist 6.01039
lhand -113.855 -119.338
lfingers 7.12502
lthumb 74.7428 -354.331
rfemur -7.21879 38.1896 17.0951
rtibia 17.8462
rfoot -31.8746 -43.5369
rtoes 31.7437
lfemur -7.46334 -50.7214 -7.40629
ltibia 10.3197
lfoot -41.8418 41.1176
ltoes 39.0143
3774
root 8.36234 16.151 -19.4541 -352.365 -0.540476 -0.224286
lowerback -8.86992 -0.733611 0.971452
upperback -10.9027 -0.941281 1.91037
thorax -6.45829 -0.460796 1.43265
lowerneck -11.3754 1.26631 -6.63567
upperneck 12.196 1.67562 8.44207
head 5.39937 1.12737 3.88585
rclavicle -3.97569e-016 -7.95139e-016
rhumerus -4.98165 26.6467 -78.7319
rradius 137.994
rwrist -17.6617
rhand 37.6831 -1.4939
rfingers 7.12502
rthumb 60.4484 -374.795
lclavicle -3.97569e-016 -7.95139e-016
lhumerus -14.2617 -7.25966 80.8096
lradius 139.71
lwrist 5.69338
lhand -114.088 -120.298
lfingers 7.12502
lthumb 74.7815 -354.448
rfemur -7.17263 38.7043 17.1468
rtibia 17.7466
rfoot -32.549 -43.5313
rtoes 32.5418
lfemur -7.46181 -50.7769 -7.389
ltibia 10.5058
lfoot -42.232 41.0607
ltoes 39.6349
